<svg xmlns="http://www.w3.org/2000/svg" width="840" height="880" viewBox="0 0 840 880" font-family="ui-monospace,SFMono-Regular,Menlo,Consolas,monospace"><style>.t{opacity:0;animation:in .45s ease-out both}@keyframes in{0%{opacity:0;transform:translateY(14px)}100%{opacity:1;transform:translateY(0)}}.b{transform-box:fill-box;transform-origin:bottom;transform:scaleY(0);animation:grow .6s ease-out both}@keyframes grow{to{transform:scaleY(1)}}@media (prefers-reduced-motion:reduce){.t,.b{opacity:1!important;transform:none!important;animation:none!important}}</style><defs><linearGradient id="bg" x1="0" y1="0" x2="0" y2="1"><stop offset="0" stop-color="#111722"/><stop offset="1" stop-color="#0d1117"/></linearGradient></defs><rect width="100%" height="100%" rx="12" fill="url(#bg)"/><rect x="0.5" y="0.5" width="839" height="879" rx="12" fill="none" stroke="#30363d"/><line x1="0" y1="30" x2="840" y2="30" stroke="#30363d"/><circle cx="20" cy="15.0" r="5" fill="#ff5f56"/><circle cx="36" cy="15.0" r="5" fill="#ffbd2e"/><circle cx="52" cy="15.0" r="5" fill="#27c93f"/><text x="420.0" y="19.0" fill="#7d8590" font-size="12" text-anchor="middle">Sap1x@github: ~$ ./stats.sh</text><g class="t" style="animation-delay:0.00s"><rect x="20.0" y="54" width="392.0" height="150" rx="10" fill="#161b22" stroke="#30363d"/><text x="44.0" y="94" fill="#7d8590" font-size="22">$ current streak</text><text x="44.0" y="154" fill="#39d353" font-size="54" font-weight="700">1<tspan font-size="24" font-weight="400" fill="#7d8590"> days</tspan></text><text x="44.0" y="186" fill="#7d8590" font-size="20">Oct 5 – Oct 5</text></g><g class="t" style="animation-delay:0.15s"><rect x="428.0" y="54" width="392.0" height="150" rx="10" fill="#161b22" stroke="#30363d"/><text x="452.0" y="94" fill="#7d8590" font-size="22">$ longest streak</text><text x="452.0" y="154" fill="#e6edf3" font-size="54" font-weight="700">3<tspan font-size="24" font-weight="400" fill="#7d8590"> days</tspan></text><text x="452.0" y="186" fill="#7d8590" font-size="20">Apr 6 – Apr 8</text></g><g class="t" style="animation-delay:0.30s"><rect x="20.0" y="220" width="392.0" height="150" rx="10" fill="#161b22" stroke="#30363d"/><text x="44.0" y="260" fill="#7d8590" font-size="22">$ contributions</text><text x="44.0" y="320" fill="#e6edf3" font-size="54" font-weight="700">104<tspan font-size="24" font-weight="400" fill="#7d8590"></tspan></text><text x="44.0" y="352" fill="#7d8590" font-size="20">in the last year</text></g><g class="t" style="animation-delay:0.45s"><rect x="428.0" y="220" width="392.0" height="150" rx="10" fill="#161b22" stroke="#30363d"/><text x="452.0" y="260" fill="#7d8590" font-size="22">$ active days</text><text x="452.0" y="320" fill="#e6edf3" font-size="54" font-weight="700">28<tspan font-size="24" font-weight="400" fill="#7d8590"> / 366</tspan></text><text x="452.0" y="352" fill="#7d8590" font-size="20">8% of the year</text></g><g class="t" style="animation-delay:0.60s"><rect x="20.0" y="386" width="392.0" height="150" rx="10" fill="#161b22" stroke="#30363d"/><text x="44.0" y="426" fill="#7d8590" font-size="22">$ best day</text><text x="44.0" y="486" fill="#e6edf3" font-size="54" font-weight="700">15<tspan font-size="24" font-weight="400" fill="#7d8590"></tspan></text><text x="44.0" y="518" fill="#7d8590" font-size="20">Apr 8</text></g><g class="t" style="animation-delay:0.75s"><rect x="428.0" y="386" width="392.0" height="150" rx="10" fill="#161b22" stroke="#30363d"/><text x="452.0" y="426" fill="#7d8590" font-size="22">$ avg / active day</text><text x="452.0" y="486" fill="#e6edf3" font-size="54" font-weight="700">3.7<tspan font-size="24" font-weight="400" fill="#7d8590"></tspan></text><text x="452.0" y="518" fill="#7d8590" font-size="20">contributions</text></g><rect x="20" y="552" width="800" height="308" rx="10" fill="#161b22" stroke="#30363d"/><text x="44" y="592" fill="#7d8590" font-size="22">$ contributions / month</text><rect class="b" x="55.0" y="813.8" width="35.9" height="6.2" rx="3" fill="#26a641" style="animation-delay:0.00s"/><text x="72.9" y="848" fill="#7d8590" font-size="18" text-anchor="middle">O</text><rect class="b" x="112.8" y="813.8" width="35.9" height="6.2" rx="3" fill="#26a641" style="animation-delay:0.06s"/><text x="130.8" y="848" fill="#7d8590" font-size="18" text-anchor="middle">N</text><rect class="b" x="170.7" y="818.0" width="35.9" height="2.0" rx="3" fill="#26a641" style="animation-delay:0.12s"/><text x="188.6" y="848" fill="#7d8590" font-size="18" text-anchor="middle">D</text><rect class="b" x="228.5" y="690.2" width="35.9" height="129.8" rx="3" fill="#26a641" style="animation-delay:0.18s"/><text x="246.5" y="848" fill="#7d8590" font-size="18" text-anchor="middle">J</text><rect class="b" x="286.4" y="813.8" width="35.9" height="6.2" rx="3" fill="#26a641" style="animation-delay:0.24s"/><text x="304.3" y="848" fill="#7d8590" font-size="18" text-anchor="middle">F</text><rect class="b" x="344.2" y="708.7" width="35.9" height="111.3" rx="3" fill="#26a641" style="animation-delay:0.30s"/><text x="362.2" y="848" fill="#7d8590" font-size="18" text-anchor="middle">M</text><rect class="b" x="402.1" y="616.0" width="35.9" height="204.0" rx="3" fill="#39d353" style="animation-delay:0.36s"/><text x="420.0" y="848" fill="#7d8590" font-size="18" text-anchor="middle">A</text><rect class="b" x="459.9" y="818.0" width="35.9" height="2.0" rx="3" fill="#26a641" style="animation-delay:0.42s"/><text x="477.8" y="848" fill="#7d8590" font-size="18" text-anchor="middle">M</text><rect class="b" x="517.8" y="739.6" width="35.9" height="80.4" rx="3" fill="#26a641" style="animation-delay:0.48s"/><text x="535.7" y="848" fill="#7d8590" font-size="18" text-anchor="middle">J</text><rect class="b" x="575.6" y="727.3" width="35.9" height="92.7" rx="3" fill="#26a641" style="animation-delay:0.54s"/><text x="593.5" y="848" fill="#7d8590" font-size="18" text-anchor="middle">J</text><rect class="b" x="633.5" y="818.0" width="35.9" height="2.0" rx="3" fill="#26a641" style="animation-delay:0.60s"/><text x="651.4" y="848" fill="#7d8590" font-size="18" text-anchor="middle">A</text><rect class="b" x="691.3" y="818.0" width="35.9" height="2.0" rx="3" fill="#26a641" style="animation-delay:0.66s"/><text x="709.2" y="848" fill="#7d8590" font-size="18" text-anchor="middle">S</text><rect class="b" x="749.1" y="813.8" width="35.9" height="6.2" rx="3" fill="#26a641" style="animation-delay:0.72s"/><text x="767.1" y="848" fill="#7d8590" font-size="18" text-anchor="middle">O</text></svg>